# xmcd
#
# Track frame offsets:
#       150
#       11077
#       20262
#       28066
#       39240
#       47318
#       57456
#       65967
#       76422
#       88094
#       102861
#       110833
#
# Disc length: 1592 seconds
#
# Revision: 1
# Processed by: cddbd v1.5.2PL0 Copyright (c) Steve Scherf et al.
# Submitted via: FreeDbEdit v0.1
#
DISCID=9906360c
DTITLE=Roger Miller - King of the Road
DYEAR=2007
DGENRE=Country
TTITLE0=King of the Road
TTITLE1=Chug-A-Lug
TTITLE2=Dang Me
TTITLE3=Husbands and Wives
TTITLE4=In the Summertime
TTITLE5=Engine Engine #9
TTITLE6=You Can't Rollerskate in a Buffalo Heard
TTITLE7=Release Me
TTITLE8=Walkin' in the Sunshine
TTITLE9=Me and Bobby Mcgee
TTITLE10=Do-Wacka-Do
TTITLE11=Billy Bayou
EXTD=
EXTT0=
EXTT1=
EXTT2=
EXTT3=
EXTT4=
EXTT5=
EXTT6=
EXTT7=
EXTT8=
EXTT9=
EXTT10=
EXTT11=
PLAYORDER=
